<svg width="24" height="23" viewBox="0 0 24 23" fill="none" xmlns="http://www.w3.org/2000/svg">
<ellipse cx="8.9498" cy="15.7133" rx="4.12217" ry="4.06017" stroke="white" stroke-width="2.36228"/>
<path d="M4.45432 13.2105L18.3351 17.5194C18.6375 17.6133 18.9608 17.685 19.2613 17.5854C22.5574 16.4931 22.5574 3.91176 19.2613 2.81937C18.9608 2.71976 18.6375 2.79151 18.3351 2.88538L4.45432 7.1943C1.49976 8.11146 1.49976 12.2933 4.45432 13.2105Z" fill="#42389D"/>
<path d="M4.45432 13.2105L18.3351 17.5194C18.6375 17.6133 18.9608 17.685 19.2613 17.5854C22.5574 16.4931 22.5574 3.91176 19.2613 2.81937C18.9608 2.71976 18.6375 2.79151 18.3351 2.88538L4.45432 7.1943C1.49976 8.11146 1.49976 12.2933 4.45432 13.2105Z" stroke="white" stroke-width="2.36228" stroke-linejoin="round"/>
</svg>
